<mxfile host="Electron" modified="2023-10-01T10:33:27.849Z" agent="Mozilla/5.0 (Windows NT 10.0; Win64; x64) AppleWebKit/537.36 (KHTML, like Gecko) draw.io/21.7.5 Chrome/114.0.5735.289 Electron/25.8.1 Safari/537.36" etag="YKSA5rXTgDawYVEF7y8H" version="21.7.5" type="device">
  <diagram name="Strona-1" id="UvyShZn9PSrIbfcUuBwQ">
    <mxGraphModel dx="987" dy="819" grid="0" gridSize="10" guides="1" tooltips="1" connect="1" arrows="1" fold="1" page="1" pageScale="1" pageWidth="827" pageHeight="1169" math="0" shadow="0">
      <root>
        <mxCell id="0" />
        <mxCell id="1" parent="0" />
        <mxCell id="8zPXi7cDP1dJKs5x9NC4-1" value="" style="strokeWidth=1;shadow=0;dashed=0;align=center;html=1;shape=mxgraph.mockup.containers.browserWindow;rSize=0;strokeColor=#666666;strokeColor2=#008cff;strokeColor3=#c4c4c4;mainText=,;recursiveResize=0;fillColor=none;textOpacity=60;" vertex="1" parent="1">
          <mxGeometry x="77" y="377" width="432" height="377" as="geometry" />
        </mxCell>
        <mxCell id="8zPXi7cDP1dJKs5x9NC4-2" value="Clickjacking" style="strokeWidth=1;shadow=0;dashed=0;align=center;html=1;shape=mxgraph.mockup.containers.anchor;fontSize=17;fontColor=#666666;align=left;whiteSpace=wrap;" vertex="1" parent="8zPXi7cDP1dJKs5x9NC4-1">
          <mxGeometry x="60" y="12" width="110" height="26" as="geometry" />
        </mxCell>
        <mxCell id="8zPXi7cDP1dJKs5x9NC4-3" value="" style="strokeWidth=1;shadow=0;dashed=0;align=center;html=1;shape=mxgraph.mockup.containers.anchor;rSize=0;fontSize=17;fontColor=#666666;align=left;" vertex="1" parent="8zPXi7cDP1dJKs5x9NC4-1">
          <mxGeometry x="130" y="60" width="250" height="26" as="geometry" />
        </mxCell>
        <mxCell id="8zPXi7cDP1dJKs5x9NC4-4" value="&lt;font color=&quot;#009900&quot; style=&quot;font-size: 18px;&quot;&gt;Click here to win&lt;/font&gt;" style="rounded=0;whiteSpace=wrap;html=1;strokeWidth=1;strokeColor=#009900;fillColor=#E6FFCC;fontColor=#333333;" vertex="1" parent="8zPXi7cDP1dJKs5x9NC4-1">
          <mxGeometry x="138" y="182" width="160" height="80" as="geometry" />
        </mxCell>
        <mxCell id="8zPXi7cDP1dJKs5x9NC4-5" value="&lt;p style=&quot;line-height: 100%;&quot;&gt;&lt;font style=&quot;font-size: 18px;&quot; color=&quot;#ff0000&quot;&gt;Malicious Action&lt;/font&gt;&lt;/p&gt;" style="rounded=0;whiteSpace=wrap;html=1;strokeWidth=1;textOpacity=30;fontColor=#333333;strokeColor=#FF0000;fillColor=#FFCCCC;opacity=20;" vertex="1" parent="8zPXi7cDP1dJKs5x9NC4-1">
          <mxGeometry x="194" y="210" width="160" height="80" as="geometry" />
        </mxCell>
        <mxCell id="8zPXi7cDP1dJKs5x9NC4-15" value="" style="endArrow=none;html=1;rounded=0;entryX=1;entryY=0;entryDx=0;entryDy=0;exitX=1;exitY=0;exitDx=0;exitDy=0;fillColor=#f5f5f5;strokeColor=#CCCCCC;" edge="1" parent="8zPXi7cDP1dJKs5x9NC4-1" source="8zPXi7cDP1dJKs5x9NC4-4" target="8zPXi7cDP1dJKs5x9NC4-5">
          <mxGeometry width="50" height="50" relative="1" as="geometry">
            <mxPoint x="185" y="264" as="sourcePoint" />
            <mxPoint x="235" y="214" as="targetPoint" />
          </mxGeometry>
        </mxCell>
        <mxCell id="8zPXi7cDP1dJKs5x9NC4-16" value="" style="endArrow=none;html=1;rounded=0;entryX=0;entryY=0;entryDx=0;entryDy=0;exitX=1;exitY=0;exitDx=0;exitDy=0;fillColor=#f5f5f5;strokeColor=#CCCCCC;" edge="1" parent="8zPXi7cDP1dJKs5x9NC4-1" target="8zPXi7cDP1dJKs5x9NC4-5">
          <mxGeometry width="50" height="50" relative="1" as="geometry">
            <mxPoint x="138" y="182" as="sourcePoint" />
            <mxPoint x="192" y="208" as="targetPoint" />
          </mxGeometry>
        </mxCell>
        <mxCell id="8zPXi7cDP1dJKs5x9NC4-17" value="" style="endArrow=none;html=1;rounded=0;entryX=0;entryY=1;entryDx=0;entryDy=0;exitX=0;exitY=1;exitDx=0;exitDy=0;fillColor=#f5f5f5;strokeColor=#CCCCCC;" edge="1" parent="8zPXi7cDP1dJKs5x9NC4-1" source="8zPXi7cDP1dJKs5x9NC4-4" target="8zPXi7cDP1dJKs5x9NC4-5">
          <mxGeometry width="50" height="50" relative="1" as="geometry">
            <mxPoint x="138" y="262" as="sourcePoint" />
            <mxPoint x="192" y="288" as="targetPoint" />
          </mxGeometry>
        </mxCell>
        <mxCell id="8zPXi7cDP1dJKs5x9NC4-18" value="" style="endArrow=none;html=1;rounded=0;entryX=1;entryY=1;entryDx=0;entryDy=0;exitX=0;exitY=1;exitDx=0;exitDy=0;fillColor=#f5f5f5;strokeColor=#CCCCCC;opacity=20;" edge="1" parent="8zPXi7cDP1dJKs5x9NC4-1" target="8zPXi7cDP1dJKs5x9NC4-5">
          <mxGeometry width="50" height="50" relative="1" as="geometry">
            <mxPoint x="298" y="262" as="sourcePoint" />
            <mxPoint x="352" y="288" as="targetPoint" />
          </mxGeometry>
        </mxCell>
      </root>
    </mxGraphModel>
  </diagram>
</mxfile>
